 http://img850.imageshack.us/img850/6162/doom2005.jpg

Country.......: USA, Germany, Czech Republic, United Kingdom
Genre.........: Sci-Fi, Thriller, Horror, Action, Adventure
Date release..: 20.10.2005 [World]
Director......: Andrzej Bartkowiak
Writers.......: Dave Callaham, Wesley Strick
Duration......: 108 min.
More..........: http://www.imdb.com/title/tt0419706
Trailer.......: http://www.imdb.com/video/screenplay/vi1503854873
Trailer.......:

Pilot :
Space Marines are sent to investigate strange events at a research facility on a distant planet but find themselves at the mercy of genetically enhanced killing machines. 

Cats :
Deobia Oparei   	 ...  	Destroyer (as DeObia Oparei)
Karl Urban 	... 	John Grimm
Dwayne Johnson 	... 	Sarge (as The Rock)
Rosamund Pike 	... 	Samantha Grimm
Razaaq Adoti 	... 	Duke (as Raz Adoti)
Richard Brake 	... 	Corporal Dean Portman
Al Weaver 	... 	The Kid
Dexter Fletcher 	... 	Pinky
Brian Steele 	... 	Hell Knight / Curtis Stahl
Ben Daniels 	... 	Goat
Yao Chin 	... 	Mac
Robert Russell 	... 	Dr. Carmack
Daniel York 	... 	Lt. Huengs
Ian Hughes 	... 	Sanford Crosby
Sara Houghton 	... 	Dr. Jenna Willits 

Data Technical :
!!! SAMPLE !!!
Audio.....: Lector Polish
Subtitles.: None
Format                           : AVI
Format/Info                      : Audio Video Interleave
File size                        : 696 MiB
Duration                         : 1h 48mn
Overall bit rate                 : 900 Kbps
Writing application              : VirtualDubMod 1.5.10.2 (build 2540/release)
Writing library                  : VirtualDubMod build 2540/release
Video
ID                               : 0
Format                           : MPEG-4 Visual
Format profile                   : Advanced Simple@L5
Format settings, BVOP            : Yes
Format settings, QPel            : No
Format settings, GMC             : No warppoints
Format settings, Matrix          : Default (H.263)
Codec ID                         : XVID
Codec ID/Hint                    : XviD
Duration                         : 1h 48mn
Bit rate                         : 761 Kbps
Width                            : 640 pixels
Height                           : 272 pixels
Display aspect ratio             : 2.35:1
Frame rate                       : 25.000 fps
Color space                      : YUV
Chroma subsampling               : 4:2:0
Bit depth                        : 8 bits
Scan type                        : Progressive
Bits/(Pixel*Frame)               : 0.175
Stream size                      : 588 MiB (85%)
Writing library                  : XviD 1.1.0 (UTC 2005-11-22)
Audio
ID                               : 1
Format                           : MPEG Audio
Format version                   : Version 1
Format profile                   : Layer 3
Mode                             : Joint stereo
Mode extension                   : MS Stereo
Codec ID                         : 55
Codec ID/Hint                    : MP3
Duration                         : 1h 48mn
Bit rate mode                    : Variable
Bit rate                         : 128 Kbps
Channel(s)                       : 2 channels
Sampling rate                    : 48.0 KHz
Stream size                      : 97.7 MiB (14%)
Alignment                        : Aligned on interleaves
Interleave, duration             : 24 ms (0.60 video frame)
Interleave, preload duration     : 449 ms
Writing library                  : LAME3.90.
Encoding settings                : -m j -V 4 -q 2 -lowpass 17.6 --abr 128

Screen : 
http://img709.imageshack.us/img709/1720/doom2005s5.jpg 
http://img842.imageshack.us/img842/4274/doom2005s1.jpg 
http://img714.imageshack.us/img714/946/doom2005s2.jpg 
http://img251.imageshack.us/img251/7289/doom2005s3.jpg 
http://img88.imageshack.us/img88/5299/doom2005s4.jpg